<svg xmlns="http://www.w3.org/2000/svg" viewBox="0 0 280 237" role="img" aria-labelledby="logoTitle logoDesc">
  <title id="logoTitle">Brand logo</title>
  <desc id="logoDesc">Green abstract emblem with a yellow sun.</desc>
  <path fill="#008A48" fill-rule="evenodd" d="M 132.00 0.00 L 131.83 0.33 L 130.33 0.83 L 128.33 0.83 L 127.00 1.17 L 125.67 1.83 L 123.67 2.00 L 122.83 2.67 L 121.33 2.83 L 119.67 3.83 L 118.33 4.00 L 117.67 4.67 L 116.50 4.83 L 115.50 5.67 L 114.33 6.00 L 113.67 6.67 L 112.50 7.00 L 111.83 7.67 L 110.83 8.00 L 110.33 8.67 L 109.33 9.00 L 108.50 9.83 L 108.17 9.83 L 107.17 10.83 L 105.50 11.83 L 103.50 13.83 L 103.00 14.00 L 102.83 14.50 L 102.17 14.83 L 100.00 17.00 L 99.83 17.50 L 98.00 19.17 L 97.83 19.67 L 97.00 20.50 L 96.83 21.00 L 96.00 21.83 L 95.83 22.33 L 94.83 23.33 L 94.67 24.00 L 94.00 24.67 L 93.67 25.67 L 93.00 26.17 L 92.50 27.50 L 92.00 28.00 L 91.67 29.00 L 91.17 29.50 L 90.83 30.17 L 90.83 30.67 L 89.83 32.17 L 89.67 33.33 L 88.83 34.50 L 88.83 35.50 L 88.00 36.83 L 87.83 38.50 L 87.00 40.00 L 86.67 42.83 L 86.33 43.33 L 85.83 45.33 L 85.83 47.83 L 85.67 48.00 L 85.67 49.17 L 85.33 50.00 L 85.33 51.50 L 85.17 51.67 L 85.17 57.33 L 85.33 57.50 L 85.33 59.00 L 85.67 59.83 L 85.67 61.00 L 85.83 61.17 L 86.00 64.67 L 86.67 66.17 L 87.00 69.00 L 87.83 70.50 L 88.00 72.17 L 88.67 73.00 L 89.00 74.83 L 89.67 75.67 L 89.83 76.50 L 90.17 77.00 L 90.17 77.67 L 90.00 77.83 L 75.33 77.83 L 75.00 77.50 L 75.00 72.83 L 74.83 72.67 L 74.67 71.17 L 74.00 69.67 L 74.00 68.17 L 73.00 66.50 L 73.00 65.50 L 72.00 64.00 L 71.83 63.00 L 71.17 62.33 L 70.83 61.17 L 70.00 60.50 L 69.83 59.83 L 69.17 59.17 L 68.83 58.33 L 67.00 56.50 L 66.83 56.00 L 64.67 53.83 L 64.17 53.67 L 62.67 52.00 L 61.83 51.67 L 61.17 51.00 L 60.50 50.83 L 59.83 50.00 L 58.83 49.67 L 58.17 49.00 L 57.00 48.67 L 56.33 48.00 L 55.17 47.83 L 54.17 47.00 L 52.50 46.67 L 51.50 46.00 L 49.33 45.67 L 48.67 45.17 L 47.50 44.83 L 45.67 44.83 L 45.50 44.67 L 44.83 44.67 L 43.17 44.17 L 42.17 44.17 L 42.00 44.00 L 35.33 44.00 L 31.83 44.83 L 30.00 44.83 L 29.83 45.00 L 29.17 45.00 L 27.67 45.83 L 25.83 46.00 L 24.67 46.83 L 23.17 47.00 L 22.50 47.67 L 21.50 47.83 L 20.17 48.83 L 19.50 48.83 L 18.67 49.67 L 17.67 50.00 L 17.00 50.67 L 16.17 51.00 L 15.50 51.83 L 15.17 51.83 L 10.83 55.83 L 9.67 57.50 L 9.00 58.00 L 8.83 58.50 L 8.00 59.17 L 7.67 60.17 L 7.00 60.83 L 6.67 61.83 L 6.00 62.50 L 5.67 63.83 L 5.00 64.50 L 4.83 65.67 L 4.00 67.00 L 3.83 68.83 L 2.83 71.33 L 2.83 73.00 L 2.00 75.33 L 1.83 78.33 L 1.00 81.33 L 0.67 87.17 L 0.33 88.00 L 0.00 88.17 L 0.00 89.83 L 0.33 89.83 L 0.83 90.67 L 0.33 92.83 L 0.00 93.00 L 0.00 108.67 L 0.33 108.83 L 0.67 109.83 L 0.67 111.33 L 0.00 111.83 L 0.00 112.67 L 0.33 112.83 L 0.33 113.67 L 0.67 114.33 L 0.83 118.67 L 1.00 118.83 L 1.17 120.83 L 1.83 123.00 L 2.00 126.00 L 2.83 128.00 L 2.83 129.83 L 3.17 131.17 L 3.83 132.50 L 3.83 134.00 L 4.83 136.17 L 4.83 137.67 L 5.67 139.17 L 5.83 140.83 L 6.67 142.33 L 7.00 144.33 L 7.67 145.17 L 7.83 146.67 L 8.67 147.83 L 9.00 149.67 L 9.67 150.33 L 9.83 151.67 L 10.83 153.17 L 11.00 154.33 L 11.83 155.33 L 11.83 156.17 L 12.83 157.50 L 13.00 158.67 L 13.67 159.33 L 14.00 160.67 L 14.67 161.33 L 15.00 162.50 L 15.67 163.17 L 16.00 164.50 L 16.67 165.00 L 17.00 166.17 L 17.67 166.83 L 18.00 167.83 L 18.67 168.50 L 19.00 169.67 L 19.67 170.17 L 20.17 171.33 L 20.67 171.83 L 20.83 172.50 L 21.83 173.50 L 21.83 173.83 L 22.17 174.50 L 22.83 175.17 L 22.83 175.50 L 23.83 176.50 L 25.00 178.67 L 25.83 179.33 L 26.00 179.83 L 27.67 181.83 L 28.00 182.67 L 28.83 183.33 L 30.83 185.67 L 31.00 186.17 L 31.83 187.00 L 32.17 187.67 L 34.83 190.33 L 35.00 190.83 L 43.00 198.83 L 43.67 199.17 L 46.50 202.00 L 49.50 204.17 L 50.17 205.00 L 50.50 205.00 L 52.33 206.83 L 53.17 207.17 L 54.00 208.00 L 54.33 208.00 L 55.00 208.83 L 55.83 209.17 L 56.33 209.83 L 57.33 210.17 L 57.83 210.83 L 58.50 211.00 L 59.17 211.83 L 60.17 212.17 L 61.00 213.00 L 61.50 213.00 L 62.17 213.83 L 62.83 214.00 L 63.83 214.83 L 64.83 215.17 L 65.33 215.83 L 66.50 216.17 L 67.00 216.83 L 68.17 217.17 L 68.83 217.83 L 69.83 218.17 L 70.83 219.00 L 71.50 219.00 L 72.33 219.83 L 73.67 220.17 L 74.17 220.83 L 75.17 221.00 L 76.17 221.83 L 77.50 222.17 L 78.17 222.83 L 79.33 223.00 L 80.33 223.83 L 81.67 224.00 L 82.33 224.67 L 83.00 225.00 L 84.17 225.17 L 85.33 226.00 L 86.67 226.17 L 87.33 226.83 L 88.67 227.00 L 89.67 227.83 L 90.67 228.00 L 92.00 228.83 L 93.50 229.00 L 95.00 229.83 L 95.67 230.00 L 97.00 230.00 L 98.83 230.67 L 100.67 230.83 L 100.83 231.00 L 109.17 231.00 L 109.33 230.83 L 110.67 230.83 L 113.00 230.00 L 115.00 229.83 L 116.50 229.00 L 117.67 229.00 L 118.33 229.67 L 119.17 230.00 L 120.17 231.00 L 120.50 231.00 L 121.50 231.83 L 122.50 232.17 L 123.17 232.83 L 124.33 233.17 L 125.00 233.83 L 126.67 234.17 L 127.33 234.83 L 128.67 235.00 L 130.33 235.83 L 132.67 236.00 L 133.83 236.50 L 134.00 236.83 L 146.83 236.83 L 147.50 236.17 L 150.33 235.83 L 152.00 235.00 L 153.00 235.00 L 154.00 234.17 L 155.67 233.83 L 156.33 233.17 L 157.50 232.83 L 158.17 232.17 L 158.83 232.00 L 159.83 231.17 L 160.50 231.00 L 161.50 230.00 L 161.83 230.00 L 163.00 229.00 L 164.17 229.00 L 165.67 229.83 L 167.83 230.00 L 169.50 230.67 L 171.33 230.83 L 171.50 231.00 L 179.83 231.00 L 180.00 230.83 L 181.83 230.67 L 182.83 230.17 L 185.67 229.83 L 186.67 229.17 L 188.17 229.00 L 189.00 228.67 L 189.50 228.17 L 190.67 228.00 L 192.17 227.00 L 193.33 226.83 L 194.33 226.00 L 195.33 226.00 L 196.50 225.17 L 197.67 225.00 L 198.33 224.67 L 199.17 224.00 L 200.00 224.00 L 201.33 223.00 L 202.50 222.83 L 203.17 222.17 L 204.50 221.83 L 205.50 221.00 L 206.50 220.83 L 207.00 220.17 L 208.00 220.00 L 209.00 219.17 L 209.83 219.00 L 210.83 218.17 L 211.83 217.83 L 212.50 217.17 L 213.67 216.83 L 214.17 216.17 L 214.83 216.00 L 215.83 215.17 L 216.83 214.83 L 217.33 214.17 L 218.00 214.00 L 219.00 213.17 L 219.67 213.00 L 220.67 212.00 L 221.33 211.83 L 222.00 211.17 L 222.83 210.83 L 223.50 210.00 L 224.17 209.83 L 224.83 209.17 L 225.67 208.83 L 226.33 208.00 L 226.67 208.00 L 227.33 207.17 L 229.50 205.83 L 231.33 204.00 L 231.67 204.00 L 232.50 203.00 L 233.00 202.83 L 233.50 202.17 L 235.17 201.00 L 237.17 199.00 L 238.67 197.83 L 243.83 192.67 L 245.00 191.17 L 245.83 190.50 L 249.00 186.50 L 249.83 185.83 L 250.00 185.33 L 251.83 183.50 L 252.17 182.67 L 252.83 182.00 L 253.00 181.50 L 253.83 180.83 L 254.00 180.33 L 255.00 179.33 L 255.00 179.00 L 255.83 178.00 L 256.00 177.50 L 257.00 176.50 L 257.00 176.17 L 257.67 175.50 L 258.17 174.33 L 258.83 173.83 L 259.17 173.00 L 259.67 172.50 L 260.00 171.50 L 261.00 170.50 L 261.00 170.17 L 261.83 169.00 L 262.17 168.00 L 262.83 167.50 L 263.00 166.50 L 263.83 165.67 L 264.33 164.33 L 264.83 163.83 L 265.33 162.50 L 265.83 162.00 L 266.00 161.17 L 266.67 160.33 L 267.17 158.83 L 267.83 158.17 L 268.17 156.67 L 268.83 156.00 L 269.00 155.00 L 270.00 153.50 L 270.00 152.67 L 270.83 151.50 L 271.17 149.83 L 271.83 149.17 L 272.17 147.33 L 272.83 146.50 L 273.00 145.17 L 273.83 143.67 L 274.00 142.17 L 274.83 140.67 L 275.00 139.17 L 276.00 137.00 L 276.17 135.00 L 276.83 134.00 L 277.00 131.83 L 278.00 129.17 L 278.00 127.33 L 278.83 125.67 L 279.00 123.17 L 279.50 122.00 L 279.83 121.83 L 279.83 106.83 L 279.17 106.17 L 278.83 103.17 L 278.17 102.00 L 278.00 100.33 L 277.00 98.67 L 276.83 97.50 L 276.17 96.83 L 275.83 95.33 L 275.00 94.50 L 274.83 93.67 L 274.17 93.00 L 273.83 92.00 L 273.17 91.50 L 272.83 90.67 L 272.17 90.00 L 271.67 89.00 L 269.00 86.50 L 268.83 86.00 L 268.33 85.83 L 267.50 84.83 L 266.50 84.00 L 266.00 83.83 L 265.17 83.00 L 264.17 82.67 L 263.67 82.00 L 262.33 81.50 L 261.67 80.83 L 261.00 80.83 L 259.33 79.83 L 258.00 79.67 L 257.50 79.17 L 256.67 78.83 L 255.17 78.83 L 252.83 78.00 L 251.00 78.00 L 250.83 77.83 L 190.00 77.83 L 189.67 77.50 L 189.67 77.17 L 190.00 76.67 L 190.17 75.83 L 191.00 74.67 L 191.17 73.33 L 191.83 72.50 L 192.17 70.33 L 193.00 68.83 L 193.00 67.17 L 193.83 65.17 L 194.00 61.83 L 194.50 60.00 L 194.67 57.67 L 194.83 57.50 L 194.83 51.50 L 194.67 51.33 L 194.50 49.00 L 194.00 47.17 L 193.83 43.83 L 193.00 41.83 L 193.00 40.17 L 192.50 39.00 L 192.17 38.67 L 192.00 37.00 L 191.67 36.17 L 191.17 35.67 L 191.00 34.33 L 190.00 32.67 L 190.00 32.00 L 189.17 30.83 L 189.00 30.00 L 188.17 28.83 L 187.83 27.67 L 187.17 27.00 L 187.00 26.33 L 186.17 25.50 L 185.83 24.33 L 185.17 23.83 L 184.83 23.00 L 184.17 22.50 L 183.83 21.67 L 183.00 20.83 L 182.83 20.33 L 182.00 19.33 L 181.00 18.50 L 180.83 18.00 L 175.83 13.00 L 175.33 12.83 L 174.67 12.00 L 174.17 11.83 L 172.00 10.00 L 171.33 9.83 L 170.67 9.00 L 169.67 8.67 L 168.83 7.83 L 168.00 7.67 L 167.50 7.00 L 166.33 6.67 L 165.67 6.00 L 164.83 5.83 L 163.33 4.83 L 162.33 4.67 L 161.67 4.00 L 160.33 3.83 L 158.67 2.83 L 157.17 2.67 L 155.83 1.83 L 154.50 1.83 L 153.00 1.17 L 151.67 0.83 L 149.83 0.83 L 148.50 0.33 L 148.33 0.00 L 135.17 0.00 L 134.83 0.50 L 134.17 0.50 L 133.83 0.00 Z M 137.33 11.83 L 145.83 12.00 L 146.00 12.17 L 146.83 12.17 L 148.33 12.83 L 150.83 13.00 L 152.17 13.83 L 154.00 14.00 L 155.17 14.83 L 156.50 15.00 L 157.33 15.67 L 158.67 16.00 L 159.17 16.50 L 160.50 17.00 L 161.17 17.67 L 162.33 18.00 L 163.17 18.83 L 164.00 19.17 L 166.00 20.83 L 166.50 21.00 L 173.00 27.50 L 174.83 29.83 L 175.00 30.50 L 175.83 31.33 L 176.00 31.83 L 176.83 32.83 L 177.00 33.67 L 177.83 34.50 L 178.00 35.67 L 178.67 36.33 L 179.00 37.67 L 179.83 38.83 L 180.00 40.33 L 180.83 41.67 L 181.00 43.67 L 181.83 45.33 L 182.00 48.67 L 182.67 51.17 L 182.67 54.17 L 182.83 54.33 L 182.67 54.83 L 182.67 57.83 L 182.50 58.00 L 182.50 59.00 L 182.00 60.33 L 181.83 63.83 L 181.00 65.67 L 180.83 67.33 L 180.00 68.83 L 179.83 70.17 L 179.00 71.33 L 178.83 72.50 L 178.33 73.00 L 177.83 74.50 L 177.17 75.17 L 176.67 76.50 L 176.00 77.17 L 174.83 79.33 L 173.00 81.33 L 171.83 83.00 L 168.50 86.33 L 166.67 87.83 L 166.00 88.17 L 165.50 88.83 L 165.00 89.00 L 164.17 89.83 L 163.50 90.00 L 162.83 90.67 L 161.67 91.17 L 161.33 91.67 L 159.83 92.17 L 159.50 92.67 L 158.17 93.00 L 157.50 93.67 L 156.00 94.00 L 154.67 94.83 L 153.50 94.83 L 153.00 95.17 L 153.17 95.83 L 154.17 96.17 L 156.50 98.00 L 158.67 100.17 L 159.00 100.83 L 160.00 101.83 L 160.00 102.17 L 160.67 102.83 L 161.17 104.00 L 161.83 104.67 L 162.00 105.67 L 162.83 106.67 L 163.00 107.83 L 163.83 109.33 L 164.00 111.33 L 164.67 113.00 L 164.67 114.00 L 164.83 114.17 L 164.83 174.83 L 165.17 175.17 L 167.33 174.67 L 168.33 174.00 L 169.83 173.83 L 171.00 173.00 L 172.17 172.83 L 173.33 172.00 L 174.50 171.83 L 175.50 171.00 L 176.67 170.83 L 177.50 170.00 L 178.83 169.67 L 179.17 169.17 L 180.50 168.67 L 181.00 168.17 L 182.17 167.67 L 182.83 167.00 L 183.67 166.83 L 184.50 166.00 L 185.00 165.83 L 186.00 165.00 L 186.67 164.83 L 187.33 164.00 L 187.83 163.83 L 188.50 163.17 L 190.67 161.83 L 191.33 161.00 L 195.33 157.67 L 198.50 154.50 L 202.00 150.33 L 202.67 149.83 L 203.00 149.17 L 203.67 148.50 L 204.00 147.67 L 204.83 146.83 L 205.00 146.33 L 205.67 145.83 L 206.17 144.67 L 206.83 144.00 L 207.17 143.17 L 207.67 142.83 L 208.00 141.83 L 208.83 140.50 L 209.67 139.67 L 209.67 139.17 L 209.00 138.83 L 208.67 139.00 L 186.33 139.00 L 186.17 138.83 L 184.00 138.83 L 182.67 138.00 L 181.83 138.00 L 180.83 137.67 L 180.00 137.00 L 179.33 136.83 L 178.50 136.00 L 177.83 135.83 L 177.00 135.00 L 176.50 134.83 L 173.83 132.00 L 173.00 130.83 L 172.67 130.00 L 172.00 129.33 L 171.83 128.67 L 171.17 127.83 L 170.83 127.17 L 170.83 126.67 L 170.00 125.33 L 169.83 124.00 L 169.00 122.50 L 168.83 120.00 L 168.17 117.67 L 168.00 112.83 L 168.17 112.67 L 168.33 110.33 L 168.83 109.00 L 169.00 106.67 L 169.83 105.00 L 170.00 103.50 L 170.67 102.83 L 171.00 101.33 L 171.67 100.67 L 172.00 99.50 L 172.83 98.67 L 173.00 98.17 L 175.00 95.67 L 177.00 93.83 L 177.50 93.67 L 177.83 93.17 L 178.67 92.83 L 179.50 92.00 L 180.50 91.83 L 181.50 91.00 L 183.00 90.83 L 185.17 90.00 L 251.00 90.00 L 251.17 90.17 L 252.00 90.17 L 253.17 90.83 L 254.67 91.00 L 255.83 91.83 L 256.67 92.00 L 257.33 92.67 L 258.50 93.17 L 262.83 97.50 L 263.00 98.00 L 263.83 99.00 L 264.00 99.67 L 264.83 100.50 L 265.00 101.67 L 265.83 102.50 L 266.00 103.83 L 266.83 105.17 L 267.00 107.00 L 267.83 109.17 L 267.83 111.50 L 268.00 111.67 L 267.83 119.83 L 267.67 120.00 L 267.67 120.67 L 267.00 122.00 L 266.83 123.67 L 266.17 125.17 L 266.00 126.83 L 265.83 127.00 L 265.83 128.17 L 265.00 130.00 L 264.83 132.00 L 264.00 133.83 L 263.83 135.67 L 263.00 137.00 L 262.83 138.67 L 262.00 140.00 L 261.83 141.50 L 261.00 142.83 L 260.83 144.17 L 260.00 145.33 L 259.83 146.67 L 259.00 147.83 L 258.83 149.00 L 258.00 150.17 L 257.67 151.50 L 257.00 152.17 L 256.83 153.33 L 256.17 154.00 L 255.83 155.33 L 255.00 156.17 L 254.67 157.50 L 254.00 158.17 L 253.83 159.00 L 253.00 160.00 L 253.00 160.33 L 252.17 161.50 L 251.83 162.50 L 251.17 163.00 L 250.83 164.17 L 250.00 165.00 L 249.83 165.67 L 249.17 166.33 L 248.67 167.50 L 248.17 167.83 L 247.83 168.67 L 247.00 169.50 L 246.83 170.17 L 246.00 171.00 L 245.83 171.50 L 245.17 172.00 L 244.83 172.83 L 243.00 175.00 L 242.83 175.50 L 242.00 176.17 L 241.83 176.67 L 240.17 178.50 L 239.83 179.17 L 238.00 181.00 L 236.83 182.50 L 236.00 183.17 L 231.67 187.83 L 230.00 189.17 L 226.33 192.83 L 224.67 194.00 L 223.83 194.83 L 223.33 195.00 L 222.67 195.83 L 222.17 196.00 L 220.17 197.83 L 219.67 198.00 L 218.83 198.83 L 218.17 199.00 L 217.50 199.83 L 217.00 200.00 L 216.17 200.83 L 215.17 201.17 L 214.67 201.83 L 214.00 202.00 L 213.17 202.83 L 212.50 203.00 L 211.67 203.83 L 211.00 204.00 L 210.17 204.83 L 209.00 205.17 L 208.67 205.67 L 207.50 206.17 L 207.00 206.67 L 206.00 207.00 L 205.17 207.83 L 204.17 208.00 L 203.33 208.83 L 202.33 209.00 L 201.00 210.00 L 200.33 210.00 L 199.50 210.83 L 198.33 211.00 L 197.33 211.83 L 196.17 212.00 L 195.33 212.83 L 194.17 213.00 L 193.17 213.83 L 191.83 214.00 L 190.67 214.83 L 189.33 215.00 L 188.50 215.67 L 187.00 216.00 L 186.33 216.67 L 184.83 217.00 L 183.67 217.83 L 181.83 218.00 L 180.50 218.67 L 179.83 218.67 L 179.67 218.83 L 177.17 218.83 L 177.00 219.00 L 171.67 218.83 L 171.50 218.67 L 170.83 218.67 L 169.67 218.00 L 167.67 217.83 L 167.00 217.17 L 165.50 216.83 L 164.83 216.17 L 163.33 215.67 L 163.00 215.17 L 162.17 214.83 L 161.33 214.00 L 160.50 214.00 L 160.00 214.50 L 159.83 215.17 L 157.50 217.83 L 155.83 219.17 L 155.33 219.83 L 154.83 220.00 L 154.00 220.83 L 153.00 221.17 L 152.50 221.83 L 151.67 222.00 L 150.50 222.83 L 149.50 223.00 L 148.33 223.83 L 146.67 224.00 L 145.33 224.67 L 144.67 224.67 L 144.50 224.83 L 142.33 224.83 L 142.17 225.00 L 136.17 224.83 L 136.00 224.67 L 135.33 224.67 L 134.17 224.00 L 132.50 223.83 L 131.17 223.00 L 130.17 222.83 L 129.33 222.17 L 128.00 221.67 L 127.83 221.33 L 126.67 220.83 L 125.83 220.00 L 125.33 219.83 L 121.83 216.33 L 120.00 214.00 L 119.17 214.00 L 118.50 214.83 L 118.00 215.00 L 117.33 215.67 L 116.67 216.00 L 116.17 216.00 L 115.17 216.83 L 114.00 217.00 L 112.83 217.83 L 111.17 218.00 L 110.00 218.67 L 109.33 218.67 L 109.17 218.83 L 106.67 218.83 L 106.50 219.00 L 101.00 218.83 L 100.83 218.67 L 100.17 218.67 L 98.83 218.00 L 97.00 217.83 L 95.83 217.00 L 94.67 216.83 L 93.67 216.00 L 92.50 215.83 L 90.67 214.83 L 90.00 214.83 L 88.83 214.00 L 88.17 214.00 L 87.33 213.67 L 86.67 213.00 L 85.33 212.83 L 84.83 212.33 L 83.33 211.83 L 82.50 211.17 L 81.33 210.83 L 80.50 210.17 L 79.33 209.83 L 78.50 209.17 L 77.17 208.67 L 76.50 208.00 L 76.00 208.00 L 75.33 207.67 L 75.00 207.17 L 73.83 206.83 L 73.17 206.17 L 72.00 205.67 L 71.50 205.17 L 70.50 204.83 L 70.00 204.17 L 67.50 202.83 L 66.67 202.00 L 66.00 201.83 L 65.33 201.17 L 64.50 200.83 L 64.00 200.17 L 63.33 199.83 L 62.50 199.00 L 61.83 198.83 L 61.00 198.00 L 60.50 197.83 L 58.50 196.00 L 58.00 195.83 L 56.17 194.17 L 55.50 193.83 L 52.83 191.17 L 52.17 190.83 L 50.67 189.17 L 49.00 187.83 L 46.83 185.67 L 45.67 184.17 L 42.00 180.50 L 40.00 178.17 L 39.67 177.50 L 39.00 176.83 L 38.83 176.33 L 38.00 175.67 L 37.83 175.17 L 36.00 173.17 L 35.67 172.33 L 33.17 169.17 L 32.67 168.00 L 32.00 167.50 L 31.67 166.67 L 31.17 166.17 L 30.83 165.17 L 30.00 164.33 L 29.67 163.50 L 29.17 163.00 L 28.83 162.00 L 28.00 161.00 L 27.83 160.17 L 27.00 159.33 L 26.67 158.17 L 26.00 157.50 L 25.83 156.67 L 25.17 155.83 L 24.83 154.67 L 24.17 153.83 L 23.83 152.67 L 23.00 151.50 L 22.83 150.50 L 22.00 149.33 L 21.83 148.17 L 21.00 147.17 L 20.83 145.83 L 20.00 144.67 L 19.83 143.17 L 19.00 142.17 L 18.83 140.67 L 18.00 139.17 L 18.00 138.33 L 17.67 137.17 L 17.00 136.17 L 16.83 134.33 L 16.67 133.83 L 16.17 133.33 L 15.83 130.83 L 15.00 129.00 L 14.83 126.67 L 14.00 124.50 L 13.83 121.50 L 13.17 119.83 L 13.17 119.00 L 13.00 118.83 L 12.83 114.83 L 12.50 114.00 L 12.33 112.33 L 12.17 112.17 L 12.17 110.83 L 12.00 110.67 L 12.00 105.50 L 11.83 105.33 L 12.00 90.83 L 12.17 90.67 L 12.33 88.17 L 12.83 86.50 L 13.00 82.33 L 13.17 82.17 L 13.33 80.83 L 13.83 79.83 L 14.00 76.83 L 14.17 76.67 L 14.17 76.00 L 14.83 74.67 L 15.00 72.17 L 15.83 70.83 L 16.00 69.50 L 16.67 68.83 L 17.00 67.67 L 17.67 67.00 L 18.00 66.17 L 19.50 64.33 L 21.83 62.00 L 22.33 61.83 L 24.50 60.00 L 25.50 59.67 L 26.00 59.17 L 27.17 58.83 L 28.33 58.00 L 29.67 57.83 L 31.17 57.00 L 33.67 56.83 L 35.17 56.17 L 41.00 56.00 L 41.17 56.17 L 43.00 56.33 L 44.00 56.83 L 46.33 57.00 L 47.83 57.83 L 49.17 58.00 L 50.17 58.83 L 51.33 59.00 L 52.17 59.83 L 52.67 59.83 L 53.33 60.17 L 53.67 60.67 L 54.50 61.00 L 55.17 61.83 L 55.67 62.00 L 58.83 65.17 L 59.00 65.67 L 59.83 66.50 L 60.17 67.33 L 60.67 67.83 L 61.17 69.17 L 61.83 70.00 L 62.00 71.50 L 62.83 73.00 L 62.83 74.67 L 63.00 74.83 L 63.00 88.83 L 62.83 89.17 L 63.33 90.00 L 93.17 90.00 L 93.33 90.17 L 94.17 90.17 L 95.50 90.83 L 97.17 91.00 L 98.17 91.83 L 99.33 92.00 L 100.17 92.83 L 101.00 93.00 L 101.83 93.83 L 102.33 94.00 L 106.00 97.67 L 106.67 98.50 L 107.33 99.83 L 107.83 100.33 L 108.17 101.17 L 108.67 101.67 L 109.00 103.00 L 109.83 104.17 L 110.00 105.67 L 110.83 107.17 L 111.00 109.83 L 111.33 110.50 L 111.50 112.00 L 111.67 112.17 L 111.67 117.00 L 111.50 117.17 L 111.50 118.00 L 111.00 119.17 L 110.83 121.83 L 110.00 123.33 L 109.83 124.83 L 109.17 125.67 L 108.83 127.00 L 108.00 128.00 L 108.00 128.33 L 107.17 129.50 L 106.83 130.33 L 105.17 132.00 L 104.83 132.67 L 103.00 134.17 L 102.50 134.83 L 102.00 135.00 L 101.50 135.67 L 100.33 136.17 L 99.83 136.67 L 98.83 137.00 L 97.50 137.83 L 96.17 138.00 L 94.33 138.83 L 91.83 138.83 L 91.67 139.00 L 72.33 139.00 L 72.17 138.83 L 71.33 138.83 L 71.00 139.17 L 71.00 139.67 L 72.00 140.67 L 72.00 141.00 L 72.67 141.83 L 73.17 143.00 L 73.67 143.33 L 74.17 144.50 L 75.83 146.50 L 76.17 147.33 L 76.83 148.00 L 77.00 148.50 L 82.17 154.50 L 85.33 157.67 L 91.33 162.83 L 92.17 163.17 L 95.33 165.67 L 96.33 166.00 L 96.83 166.67 L 97.83 167.00 L 98.50 167.67 L 99.50 168.00 L 100.33 168.83 L 101.33 169.00 L 102.17 169.83 L 103.17 170.00 L 103.83 170.67 L 105.17 171.00 L 106.17 171.83 L 107.33 172.00 L 108.17 172.67 L 109.67 173.00 L 111.00 173.83 L 112.33 174.00 L 113.67 174.83 L 115.67 175.17 L 116.00 174.50 L 116.00 113.00 L 116.17 112.83 L 116.17 112.00 L 116.83 110.67 L 117.00 108.83 L 117.83 107.67 L 118.00 106.33 L 118.50 105.83 L 119.17 104.17 L 119.67 103.83 L 120.17 102.50 L 121.83 100.50 L 125.33 97.00 L 126.00 96.67 L 126.67 96.00 L 127.17 95.83 L 127.33 95.33 L 126.50 94.83 L 125.17 94.83 L 123.83 94.00 L 122.67 93.83 L 122.00 93.17 L 120.67 92.83 L 120.00 92.17 L 118.83 91.83 L 118.17 91.17 L 117.33 90.83 L 116.50 90.00 L 115.67 89.83 L 114.83 89.00 L 114.33 88.83 L 113.67 88.00 L 113.17 87.83 L 112.67 87.17 L 112.17 87.00 L 108.67 83.67 L 107.00 81.67 L 106.67 81.00 L 106.00 80.50 L 105.83 80.00 L 105.00 79.17 L 104.67 78.33 L 104.00 77.67 L 103.67 76.83 L 103.00 76.17 L 102.67 75.00 L 102.00 74.33 L 101.67 73.00 L 101.00 72.33 L 100.83 71.17 L 100.00 70.00 L 99.83 68.67 L 99.00 67.17 L 98.83 65.17 L 98.33 64.50 L 98.00 63.50 L 97.83 60.00 L 97.67 59.83 L 97.67 59.17 L 97.33 58.33 L 97.33 57.17 L 97.17 57.00 L 97.17 52.17 L 97.33 52.00 L 97.50 50.00 L 97.83 49.17 L 98.00 45.67 L 98.83 43.83 L 99.00 41.83 L 99.83 40.67 L 100.00 39.00 L 100.67 38.17 L 101.00 37.33 L 101.00 36.67 L 101.67 36.00 L 102.00 34.67 L 102.67 34.00 L 103.17 32.67 L 103.83 32.00 L 104.00 31.33 L 104.67 30.83 L 105.17 29.67 L 107.00 27.33 L 112.50 21.83 L 114.67 20.00 L 117.00 18.67 L 117.33 18.17 L 118.00 17.83 L 118.50 17.83 L 119.33 17.00 L 120.17 16.83 L 121.17 16.00 L 122.17 15.83 L 123.33 15.00 L 124.67 14.83 L 125.83 14.00 L 127.67 13.83 L 129.17 13.00 L 131.67 12.83 L 132.17 12.50 L 134.17 12.00 L 137.17 12.00 Z M 20.00 74.83 L 19.83 77.33 L 19.00 79.67 L 18.83 82.83 L 18.67 83.00 L 18.50 84.67 L 18.00 86.00 L 17.83 91.67 L 17.67 91.83 L 17.67 93.83 L 17.50 94.00 L 17.33 98.00 L 17.17 98.17 L 17.17 103.83 L 17.33 104.00 L 17.33 106.00 L 17.50 106.17 L 17.50 107.83 L 17.67 108.00 L 17.67 109.67 L 17.83 109.83 L 18.00 115.50 L 18.67 117.17 L 19.00 121.67 L 19.67 123.17 L 20.00 126.33 L 20.83 128.17 L 21.00 130.50 L 21.83 132.00 L 22.00 133.83 L 22.67 134.83 L 23.00 137.00 L 23.83 138.33 L 24.00 139.83 L 24.67 140.67 L 25.00 142.67 L 25.83 143.67 L 26.00 144.83 L 26.83 146.17 L 27.17 147.50 L 27.83 148.33 L 28.00 149.50 L 28.83 150.50 L 29.00 151.50 L 29.83 152.50 L 30.17 153.83 L 30.83 154.50 L 31.17 155.67 L 31.83 156.33 L 31.83 156.67 L 32.67 157.83 L 33.00 158.83 L 33.67 159.50 L 34.00 160.67 L 34.83 161.50 L 35.17 162.33 L 35.67 162.83 L 36.00 163.67 L 36.83 164.50 L 37.00 165.17 L 37.67 165.83 L 38.00 166.67 L 39.83 168.83 L 40.00 169.50 L 41.83 171.50 L 42.17 172.17 L 44.83 175.50 L 46.83 177.50 L 50.00 181.17 L 53.50 184.67 L 58.50 189.00 L 60.33 190.83 L 60.83 191.00 L 61.67 191.83 L 62.17 192.00 L 65.50 194.83 L 66.17 195.00 L 67.00 195.83 L 67.50 196.00 L 68.00 196.67 L 70.33 198.00 L 71.17 198.83 L 72.00 199.00 L 72.83 199.83 L 73.50 200.00 L 74.00 200.67 L 75.17 201.00 L 75.83 201.67 L 77.17 202.17 L 77.83 202.83 L 78.17 202.83 L 79.33 203.67 L 80.67 204.17 L 81.33 204.83 L 82.33 205.00 L 83.00 205.67 L 84.33 206.00 L 85.33 206.83 L 86.50 207.00 L 87.50 207.83 L 88.67 208.00 L 89.83 208.83 L 91.00 209.00 L 92.00 209.83 L 93.33 210.00 L 94.67 210.83 L 95.83 211.00 L 96.83 211.83 L 98.00 212.00 L 99.17 212.83 L 101.67 213.00 L 101.83 213.17 L 102.67 213.17 L 104.67 213.67 L 107.50 213.33 L 108.50 213.00 L 110.67 212.83 L 111.83 212.00 L 113.00 211.83 L 114.00 211.00 L 114.83 210.83 L 115.67 210.00 L 116.17 209.83 L 117.00 209.00 L 117.67 208.67 L 121.00 204.83 L 121.50 204.83 L 122.00 205.50 L 122.17 206.33 L 122.83 207.17 L 123.00 208.17 L 123.33 208.83 L 123.83 209.33 L 123.83 209.67 L 124.67 210.83 L 125.00 211.67 L 128.83 215.67 L 129.50 216.00 L 130.33 216.83 L 130.83 216.83 L 131.50 217.17 L 132.17 217.83 L 133.33 218.00 L 134.83 218.83 L 136.83 219.00 L 139.33 219.67 L 140.67 219.67 L 140.83 219.50 L 142.17 219.50 L 144.00 219.00 L 146.00 218.83 L 147.33 218.00 L 148.83 217.67 L 149.50 217.00 L 150.50 216.67 L 151.17 216.00 L 151.67 215.83 L 153.83 213.83 L 155.83 211.50 L 156.00 210.83 L 156.67 210.17 L 157.00 209.50 L 157.17 208.67 L 157.83 207.83 L 158.17 206.50 L 159.33 204.83 L 159.67 204.83 L 163.00 208.67 L 163.67 209.00 L 164.33 209.83 L 165.00 210.00 L 165.67 210.67 L 166.83 211.17 L 167.33 211.67 L 168.17 212.00 L 168.83 212.00 L 170.00 212.83 L 172.17 213.00 L 172.33 213.17 L 175.00 213.50 L 175.17 213.67 L 176.17 213.67 L 179.00 213.00 L 181.33 212.83 L 182.67 212.00 L 183.83 211.83 L 184.83 211.00 L 186.00 210.83 L 187.33 210.00 L 188.67 209.83 L 189.67 209.00 L 190.83 208.83 L 192.00 208.00 L 193.00 207.83 L 194.17 207.00 L 195.17 206.83 L 196.33 206.00 L 197.17 205.83 L 198.33 205.00 L 199.17 204.83 L 200.00 204.17 L 201.33 203.67 L 201.83 203.17 L 203.17 202.67 L 203.50 202.17 L 204.67 201.83 L 205.50 201.00 L 206.17 200.83 L 207.17 200.00 L 207.83 199.83 L 208.67 199.00 L 209.50 198.83 L 211.50 197.17 L 212.50 196.83 L 213.33 196.00 L 213.83 195.83 L 214.50 195.00 L 215.33 194.67 L 216.00 194.00 L 216.50 193.83 L 217.33 193.00 L 218.00 192.67 L 218.50 192.00 L 220.67 190.50 L 221.00 190.00 L 221.50 189.83 L 223.33 188.00 L 224.83 186.83 L 225.33 186.17 L 229.83 182.00 L 232.17 179.33 L 232.83 178.83 L 234.00 177.33 L 234.83 176.67 L 237.83 173.00 L 238.17 172.33 L 239.67 170.83 L 240.83 168.83 L 242.83 166.50 L 243.00 165.83 L 243.67 165.17 L 244.00 164.33 L 244.83 163.50 L 245.17 162.50 L 245.83 161.83 L 246.00 161.17 L 246.67 160.50 L 247.00 159.50 L 247.83 158.67 L 248.17 157.50 L 248.83 156.83 L 249.00 156.00 L 249.83 155.00 L 250.17 153.83 L 250.67 153.33 L 251.17 152.00 L 251.83 151.17 L 252.00 150.17 L 252.67 149.33 L 253.00 148.00 L 253.83 146.83 L 254.00 145.67 L 254.83 144.67 L 255.17 142.83 L 255.83 142.00 L 256.00 140.67 L 256.83 139.33 L 257.00 137.83 L 257.83 136.67 L 258.00 134.83 L 258.83 133.33 L 259.00 131.33 L 259.83 129.83 L 260.00 127.67 L 260.33 126.50 L 260.83 125.67 L 261.00 122.83 L 261.83 121.67 L 262.00 119.17 L 262.50 117.50 L 262.67 115.17 L 262.83 115.00 L 262.67 112.67 L 262.00 109.83 L 261.83 107.50 L 261.17 106.50 L 260.83 104.83 L 260.33 104.17 L 259.83 102.83 L 259.00 101.83 L 258.83 101.17 L 255.83 98.00 L 255.33 97.83 L 254.83 97.17 L 253.33 96.67 L 252.67 96.00 L 250.33 95.83 L 250.17 95.67 L 186.00 95.67 L 185.83 95.83 L 183.83 96.00 L 183.17 96.50 L 181.83 97.00 L 181.17 97.67 L 180.33 98.00 L 178.17 100.17 L 177.83 101.00 L 177.17 101.67 L 176.83 102.50 L 176.00 103.67 L 175.67 104.83 L 175.00 105.83 L 174.83 107.33 L 174.17 108.67 L 174.00 110.17 L 173.83 110.33 L 173.83 114.00 L 173.67 114.17 L 173.67 114.83 L 173.83 115.00 L 174.00 119.83 L 174.83 121.67 L 175.00 123.33 L 175.83 124.50 L 176.00 125.50 L 176.83 126.50 L 178.17 128.83 L 180.17 130.83 L 180.67 131.00 L 181.17 131.67 L 182.33 132.00 L 183.17 132.83 L 184.83 133.00 L 186.50 133.50 L 217.67 133.50 L 218.00 133.83 L 218.00 135.00 L 217.17 136.00 L 216.83 137.33 L 216.17 138.17 L 215.67 139.67 L 215.00 140.33 L 214.83 141.33 L 214.00 142.17 L 213.67 143.33 L 213.00 144.00 L 212.83 144.67 L 212.00 145.67 L 211.83 146.33 L 211.00 147.17 L 210.67 148.00 L 210.00 148.67 L 209.83 149.33 L 209.17 149.83 L 209.00 150.33 L 208.00 151.33 L 207.00 153.00 L 203.83 156.67 L 197.67 162.83 L 197.00 163.17 L 196.33 164.00 L 194.00 166.00 L 192.33 167.00 L 191.33 168.00 L 190.83 168.17 L 190.33 168.83 L 189.50 169.17 L 188.83 169.83 L 188.17 170.00 L 187.33 170.83 L 186.50 171.17 L 185.83 171.83 L 185.00 172.00 L 184.17 172.83 L 183.00 173.17 L 182.67 173.67 L 181.33 174.17 L 180.83 174.67 L 179.50 175.17 L 178.67 175.83 L 177.83 176.00 L 176.50 176.83 L 175.50 177.00 L 174.33 177.83 L 173.17 178.00 L 172.00 178.83 L 170.17 179.17 L 169.17 179.83 L 167.33 180.17 L 166.33 180.83 L 164.50 181.00 L 162.83 181.83 L 161.67 181.83 L 160.50 182.33 L 159.67 182.33 L 159.17 181.83 L 159.17 115.00 L 159.00 114.83 L 158.83 111.83 L 158.00 110.17 L 157.83 108.83 L 157.17 108.00 L 157.00 107.33 L 156.17 106.17 L 155.67 105.00 L 151.67 101.00 L 151.17 100.83 L 150.50 100.17 L 149.50 99.83 L 148.50 99.00 L 147.33 98.83 L 146.00 98.00 L 144.00 97.83 L 142.17 97.33 L 138.50 97.33 L 136.67 97.83 L 135.33 97.83 L 134.67 98.00 L 133.33 98.83 L 132.17 99.00 L 131.50 99.67 L 130.33 100.00 L 129.50 100.83 L 129.00 101.00 L 125.00 105.17 L 124.83 105.67 L 124.17 106.33 L 123.67 107.67 L 123.00 108.50 L 122.83 109.67 L 122.00 111.00 L 122.00 111.83 L 121.83 112.00 L 121.83 113.67 L 121.67 113.83 L 121.50 116.33 L 121.33 116.50 L 121.33 181.83 L 121.00 182.33 L 120.17 182.33 L 119.00 181.83 L 117.83 181.83 L 116.00 181.00 L 114.50 180.83 L 113.33 180.33 L 113.00 180.00 L 111.33 179.83 L 110.00 179.00 L 108.67 178.83 L 107.67 178.00 L 106.33 177.83 L 105.17 177.00 L 104.17 176.83 L 103.00 176.00 L 102.00 175.83 L 101.00 175.00 L 100.17 174.83 L 99.33 174.17 L 98.00 173.67 L 97.33 173.00 L 96.50 172.83 L 95.67 172.00 L 94.83 171.83 L 94.17 171.17 L 93.33 170.83 L 92.83 170.17 L 91.83 169.83 L 89.67 168.00 L 89.17 167.83 L 88.50 167.17 L 87.67 166.83 L 80.00 160.00 L 77.67 157.33 L 77.00 156.83 L 76.67 156.17 L 76.00 155.67 L 73.00 152.17 L 71.67 150.00 L 71.17 149.67 L 70.50 148.50 L 70.17 148.33 L 69.83 147.33 L 69.00 146.50 L 68.67 145.67 L 68.00 145.00 L 67.83 144.17 L 67.00 143.33 L 66.83 142.67 L 66.17 141.83 L 65.67 140.50 L 65.17 140.00 L 64.83 138.83 L 64.17 138.00 L 63.83 136.83 L 63.17 136.00 L 62.50 134.33 L 62.50 134.00 L 63.00 133.50 L 91.83 133.50 L 93.67 133.00 L 95.50 132.83 L 96.50 132.00 L 97.50 131.83 L 98.33 131.00 L 98.83 130.83 L 101.83 127.83 L 102.00 127.33 L 102.83 126.67 L 103.00 125.83 L 103.83 124.83 L 104.00 123.83 L 104.83 122.67 L 105.00 121.17 L 105.83 119.17 L 105.83 118.00 L 106.00 117.83 L 106.00 111.17 L 105.83 111.00 L 105.83 109.83 L 105.00 107.83 L 104.83 106.17 L 104.17 105.50 L 103.83 104.17 L 103.00 103.17 L 102.67 102.17 L 100.83 100.00 L 98.67 98.00 L 97.83 97.67 L 96.67 96.83 L 96.17 96.83 L 95.50 96.33 L 94.17 95.83 L 92.67 95.83 L 92.50 95.67 L 58.33 95.67 L 57.67 94.50 L 57.67 75.83 L 57.00 73.67 L 56.83 72.17 L 56.00 71.17 L 55.83 70.17 L 55.00 69.33 L 54.83 68.83 L 53.17 67.00 L 51.33 65.67 L 50.83 65.00 L 49.83 64.67 L 49.17 64.00 L 47.83 63.67 L 47.00 63.00 L 45.50 62.83 L 43.83 62.00 L 42.83 62.00 L 42.67 61.83 L 35.00 61.83 L 34.83 62.00 L 33.67 62.00 L 31.83 62.83 L 30.50 63.00 L 29.33 63.83 L 28.00 64.17 L 27.50 64.83 L 26.67 65.17 L 26.00 65.83 L 25.50 66.00 L 23.00 68.33 L 22.83 69.00 L 22.17 69.67 L 21.67 70.83 L 21.00 71.67 L 20.83 73.00 Z"/>
  <path fill="#FFFFFF" fill-rule="evenodd" d="M 0.00 108.50 L 0.00 111.83 L 0.50 111.33 L 0.50 109.83 Z M 0.00 89.83 L 0.00 93.17 L 0.67 91.00 L 0.50 90.17 Z M 137.33 12.00 L 137.17 12.17 L 134.17 12.17 L 134.00 12.33 L 133.17 12.33 L 131.67 13.00 L 129.17 13.17 L 127.67 14.00 L 125.83 14.17 L 124.67 15.00 L 123.33 15.17 L 122.50 15.83 L 121.17 16.17 L 120.50 16.83 L 119.33 17.17 L 118.50 18.00 L 118.00 18.00 L 117.33 18.33 L 117.00 18.83 L 114.67 20.17 L 112.50 22.00 L 107.17 27.33 L 105.33 29.67 L 104.83 30.83 L 104.17 31.33 L 104.00 32.00 L 103.33 32.67 L 102.83 34.00 L 102.17 34.67 L 101.83 36.00 L 101.17 36.67 L 101.00 37.83 L 100.17 39.00 L 100.00 40.67 L 99.17 41.83 L 99.00 43.83 L 98.17 45.67 L 98.00 49.17 L 97.67 50.00 L 97.50 52.00 L 97.33 52.17 L 97.33 57.00 L 97.50 57.17 L 97.50 58.33 L 98.00 60.00 L 98.17 63.50 L 98.33 64.17 L 99.00 65.17 L 99.17 67.17 L 100.00 68.67 L 100.17 70.00 L 101.00 71.17 L 101.17 72.33 L 101.83 73.00 L 102.17 74.33 L 102.83 75.00 L 103.17 76.17 L 103.83 76.83 L 104.17 77.67 L 104.83 78.33 L 105.17 79.17 L 106.00 80.00 L 106.17 80.50 L 106.83 81.00 L 107.17 81.67 L 108.83 83.67 L 112.17 86.83 L 112.67 87.00 L 113.17 87.67 L 113.67 87.83 L 114.33 88.67 L 114.83 88.83 L 115.67 89.67 L 116.50 89.83 L 117.33 90.67 L 118.17 91.00 L 118.83 91.67 L 120.00 92.00 L 120.67 92.67 L 121.67 92.83 L 122.67 93.67 L 123.83 93.83 L 125.17 94.67 L 126.50 94.67 L 127.33 95.17 L 127.33 95.83 L 125.33 97.17 L 122.00 100.50 L 120.33 102.50 L 119.83 103.83 L 119.33 104.17 L 118.67 105.83 L 118.17 106.33 L 118.00 107.67 L 117.17 108.83 L 117.00 110.67 L 116.33 112.00 L 116.33 112.83 L 116.17 113.00 L 116.17 172.83 L 116.00 173.00 L 116.17 173.33 L 116.17 174.50 L 115.67 175.33 L 113.67 175.00 L 112.33 174.17 L 111.00 174.00 L 109.67 173.17 L 108.50 173.00 L 107.33 172.17 L 106.17 172.00 L 105.50 171.33 L 104.17 171.00 L 103.17 170.17 L 102.17 170.00 L 101.33 169.17 L 100.33 169.00 L 99.50 168.17 L 98.83 168.00 L 97.83 167.17 L 96.83 166.83 L 96.33 166.17 L 95.33 165.83 L 92.17 163.33 L 91.33 163.00 L 85.33 157.83 L 82.00 154.50 L 76.83 148.50 L 76.67 148.00 L 76.00 147.33 L 75.67 146.50 L 74.00 144.50 L 73.50 143.33 L 73.00 143.00 L 72.50 141.83 L 72.00 141.33 L 71.83 140.67 L 70.83 139.67 L 70.83 139.17 L 71.33 138.67 L 72.17 138.67 L 72.33 138.83 L 91.67 138.83 L 91.83 138.67 L 94.33 138.67 L 96.17 137.83 L 97.50 137.67 L 98.50 137.00 L 99.83 136.50 L 100.33 136.00 L 101.50 135.50 L 102.00 134.83 L 102.50 134.67 L 103.00 134.00 L 104.67 132.67 L 105.00 132.00 L 106.67 130.33 L 107.00 129.50 L 107.50 129.00 L 107.83 128.00 L 108.50 127.33 L 109.00 125.67 L 109.67 124.83 L 109.83 123.33 L 110.67 121.83 L 110.83 119.17 L 111.33 118.00 L 111.33 117.17 L 111.50 117.00 L 111.50 112.17 L 111.33 112.00 L 111.17 110.50 L 110.83 109.83 L 110.67 107.17 L 109.83 105.67 L 109.67 104.17 L 108.83 103.00 L 108.50 101.67 L 108.00 101.17 L 107.67 100.33 L 107.17 99.83 L 106.50 98.50 L 105.83 97.67 L 102.33 94.17 L 101.83 94.00 L 101.00 93.17 L 100.17 93.00 L 99.33 92.17 L 98.17 92.00 L 97.17 91.17 L 95.50 91.00 L 94.17 90.33 L 93.33 90.33 L 93.17 90.17 L 63.33 90.17 L 62.83 89.67 L 62.83 74.83 L 62.67 74.67 L 62.67 73.00 L 61.83 71.50 L 61.67 70.00 L 61.00 69.17 L 60.50 67.83 L 60.00 67.33 L 59.67 66.50 L 58.83 65.67 L 58.67 65.17 L 55.67 62.17 L 55.17 62.00 L 54.50 61.17 L 53.67 60.83 L 53.33 60.33 L 52.67 60.00 L 52.17 60.00 L 51.33 59.17 L 50.17 59.00 L 49.17 58.17 L 47.83 58.00 L 46.33 57.17 L 44.00 57.00 L 43.00 56.50 L 41.17 56.33 L 41.00 56.17 L 35.17 56.33 L 33.67 57.00 L 31.17 57.17 L 29.67 58.00 L 28.33 58.17 L 27.50 58.83 L 26.00 59.33 L 25.50 59.83 L 24.50 60.17 L 23.67 61.00 L 23.17 61.17 L 22.33 62.00 L 21.83 62.17 L 19.67 64.33 L 18.17 66.17 L 17.83 67.00 L 17.17 67.67 L 16.83 68.83 L 16.17 69.50 L 16.00 70.83 L 15.17 72.17 L 15.00 74.67 L 14.33 76.00 L 14.33 76.67 L 14.17 76.83 L 14.00 79.83 L 13.50 80.83 L 13.33 82.17 L 13.17 82.33 L 13.00 86.50 L 12.50 88.17 L 12.33 90.67 L 12.17 90.83 L 12.00 105.33 L 12.17 105.50 L 12.17 110.67 L 12.33 110.83 L 12.50 113.17 L 13.00 114.83 L 13.17 118.83 L 13.33 119.00 L 13.33 119.83 L 14.00 121.50 L 14.17 124.50 L 15.00 126.67 L 15.17 129.00 L 16.00 130.83 L 16.33 133.33 L 16.83 133.83 L 17.00 134.33 L 17.17 136.17 L 17.83 137.17 L 18.17 138.33 L 18.17 139.17 L 19.00 140.67 L 19.17 142.17 L 20.00 143.17 L 20.17 144.67 L 21.00 145.83 L 21.17 147.17 L 22.00 148.17 L 22.17 149.33 L 23.00 150.50 L 23.17 151.50 L 24.00 152.67 L 24.17 153.50 L 25.00 154.67 L 25.17 155.50 L 25.83 156.33 L 26.17 157.50 L 26.83 158.17 L 27.17 159.33 L 28.00 160.17 L 28.33 161.33 L 29.00 162.00 L 29.00 162.33 L 29.83 163.50 L 30.17 164.33 L 31.00 165.17 L 31.00 165.50 L 31.83 166.67 L 32.17 167.50 L 32.83 168.00 L 33.33 169.17 L 35.83 172.33 L 36.17 173.17 L 38.00 175.17 L 38.17 175.67 L 39.00 176.33 L 39.17 176.83 L 39.83 177.50 L 40.17 178.17 L 42.17 180.50 L 45.83 184.17 L 47.00 185.67 L 49.00 187.67 L 50.67 189.00 L 52.17 190.67 L 52.83 191.00 L 55.50 193.67 L 56.17 194.00 L 58.00 195.67 L 58.50 195.83 L 60.50 197.67 L 61.00 197.83 L 61.83 198.67 L 62.50 198.83 L 63.33 199.67 L 64.00 200.00 L 64.50 200.67 L 65.33 201.00 L 66.00 201.67 L 66.67 201.83 L 67.50 202.67 L 68.33 203.00 L 68.83 203.50 L 70.00 204.00 L 70.50 204.67 L 71.50 205.00 L 72.00 205.50 L 73.17 206.00 L 73.83 206.67 L 75.00 207.00 L 75.33 207.50 L 76.00 207.83 L 76.50 207.83 L 77.17 208.50 L 78.50 209.00 L 79.33 209.67 L 80.50 210.00 L 81.33 210.67 L 82.50 211.00 L 83.33 211.67 L 84.83 212.17 L 85.33 212.67 L 86.67 212.83 L 87.67 213.67 L 88.83 213.83 L 90.00 214.67 L 90.67 214.67 L 92.50 215.67 L 93.67 215.83 L 94.67 216.67 L 95.83 216.83 L 97.00 217.67 L 98.83 217.83 L 100.17 218.50 L 100.83 218.50 L 101.00 218.67 L 103.33 218.67 L 103.50 218.83 L 109.17 218.67 L 109.33 218.50 L 110.00 218.50 L 111.17 217.83 L 112.83 217.67 L 114.00 216.83 L 115.17 216.67 L 116.17 215.83 L 116.67 215.83 L 117.33 215.50 L 118.00 214.83 L 118.50 214.67 L 119.17 213.83 L 120.00 213.83 L 120.83 214.67 L 121.00 215.17 L 122.00 216.33 L 125.33 219.67 L 125.83 219.83 L 126.67 220.67 L 127.83 221.17 L 128.00 221.50 L 129.33 222.00 L 130.17 222.67 L 131.17 222.83 L 132.50 223.67 L 134.17 223.83 L 135.33 224.50 L 136.00 224.50 L 136.17 224.67 L 142.17 224.83 L 142.33 224.67 L 144.50 224.67 L 144.67 224.50 L 145.33 224.50 L 146.67 223.83 L 148.33 223.67 L 149.50 222.83 L 150.50 222.67 L 151.33 222.00 L 152.50 221.67 L 153.00 221.00 L 154.00 220.67 L 157.50 217.67 L 159.67 215.17 L 159.83 214.50 L 160.50 213.83 L 161.33 213.83 L 162.17 214.67 L 163.00 215.00 L 163.33 215.50 L 164.83 216.00 L 165.50 216.67 L 166.67 216.83 L 167.67 217.67 L 169.67 217.83 L 170.83 218.50 L 171.50 218.50 L 171.67 218.67 L 174.50 218.67 L 174.67 218.83 L 179.67 218.67 L 179.83 218.50 L 180.50 218.50 L 181.83 217.83 L 183.67 217.67 L 184.83 216.83 L 186.33 216.50 L 187.00 215.83 L 188.17 215.67 L 189.33 214.83 L 190.67 214.67 L 191.83 213.83 L 193.17 213.67 L 194.17 212.83 L 195.33 212.67 L 196.17 211.83 L 197.33 211.67 L 198.33 210.83 L 199.50 210.67 L 200.33 209.83 L 201.00 209.83 L 202.00 209.00 L 203.33 208.67 L 204.17 207.83 L 205.17 207.67 L 206.00 206.83 L 206.33 206.83 L 207.50 206.00 L 208.67 205.50 L 209.00 205.00 L 210.17 204.67 L 211.00 203.83 L 211.67 203.67 L 212.50 202.83 L 213.17 202.67 L 214.00 201.83 L 214.67 201.67 L 215.17 201.00 L 216.17 200.67 L 217.00 199.83 L 217.50 199.67 L 218.17 198.83 L 218.83 198.67 L 219.67 197.83 L 220.17 197.67 L 222.17 195.83 L 222.67 195.67 L 223.33 194.83 L 223.83 194.67 L 224.67 193.83 L 226.33 192.67 L 230.00 189.00 L 231.67 187.67 L 235.83 183.17 L 236.67 182.50 L 237.83 181.00 L 239.67 179.17 L 240.00 178.50 L 241.67 176.67 L 241.83 176.17 L 242.67 175.50 L 242.83 175.00 L 244.67 172.83 L 245.00 172.00 L 245.67 171.50 L 245.83 171.00 L 246.67 170.17 L 246.83 169.50 L 247.67 168.67 L 248.00 167.83 L 248.50 167.50 L 249.00 166.33 L 249.67 165.67 L 249.83 165.00 L 250.67 164.17 L 251.00 163.00 L 251.67 162.50 L 252.00 161.50 L 252.83 160.33 L 252.83 160.00 L 253.50 159.33 L 253.83 158.17 L 254.50 157.50 L 254.83 156.17 L 255.67 155.33 L 255.83 154.33 L 256.67 153.33 L 256.83 152.17 L 257.50 151.50 L 257.83 150.17 L 258.67 149.00 L 258.83 147.83 L 259.67 146.67 L 259.83 145.33 L 260.67 144.17 L 260.83 142.83 L 261.67 141.50 L 261.83 140.00 L 262.67 138.67 L 262.83 137.00 L 263.67 135.67 L 263.83 133.83 L 264.67 132.00 L 264.83 130.00 L 265.67 128.17 L 265.67 127.00 L 265.83 126.83 L 266.00 125.17 L 266.67 123.67 L 266.83 122.00 L 267.50 120.67 L 267.50 120.00 L 267.67 119.83 L 267.83 111.67 L 267.67 111.50 L 267.67 109.17 L 266.83 107.00 L 266.67 105.17 L 265.83 103.83 L 265.67 102.50 L 264.83 101.67 L 264.67 100.50 L 263.83 99.67 L 263.67 99.00 L 263.17 98.50 L 262.67 97.50 L 258.50 93.33 L 257.33 92.83 L 256.67 92.17 L 255.83 92.00 L 254.67 91.17 L 253.17 91.00 L 252.00 90.33 L 251.17 90.33 L 251.00 90.17 L 185.17 90.17 L 183.00 91.00 L 181.50 91.17 L 180.83 91.83 L 179.50 92.17 L 178.67 93.00 L 177.83 93.33 L 177.50 93.83 L 177.00 94.00 L 175.67 95.17 L 172.17 99.50 L 171.83 100.67 L 171.17 101.33 L 171.00 102.50 L 170.17 103.50 L 170.00 105.00 L 169.17 106.67 L 169.00 109.00 L 168.50 110.33 L 168.33 112.67 L 168.17 112.83 L 168.33 117.67 L 169.00 120.00 L 169.17 122.50 L 170.00 124.00 L 170.17 125.33 L 171.00 126.67 L 171.00 127.17 L 171.83 128.33 L 172.17 129.33 L 172.83 130.00 L 173.17 130.83 L 174.00 132.00 L 176.50 134.67 L 177.00 134.83 L 177.83 135.67 L 178.50 135.83 L 179.33 136.67 L 180.00 136.83 L 180.83 137.50 L 181.83 137.83 L 182.67 137.83 L 184.00 138.67 L 186.17 138.67 L 186.33 138.83 L 209.50 138.83 L 209.83 139.17 L 209.83 139.67 L 209.00 140.50 L 208.83 141.00 L 208.33 141.50 L 207.83 142.83 L 207.33 143.17 L 207.00 144.00 L 206.33 144.67 L 205.83 145.83 L 205.17 146.33 L 205.00 146.83 L 204.17 147.67 L 203.83 148.50 L 203.17 149.17 L 202.83 149.83 L 202.17 150.33 L 198.67 154.50 L 195.33 157.83 L 191.33 161.17 L 190.67 162.00 L 190.17 162.17 L 189.50 162.83 L 187.33 164.17 L 186.67 165.00 L 186.00 165.17 L 185.50 165.67 L 184.50 166.17 L 183.67 167.00 L 182.83 167.17 L 182.17 167.83 L 181.00 168.33 L 180.50 168.83 L 179.17 169.33 L 178.83 169.83 L 177.50 170.17 L 176.67 171.00 L 175.50 171.17 L 174.83 171.83 L 173.33 172.17 L 172.17 173.00 L 171.00 173.17 L 169.83 174.00 L 168.33 174.17 L 167.33 174.83 L 165.17 175.33 L 164.67 174.83 L 164.67 114.17 L 164.50 114.00 L 164.50 113.00 L 163.83 111.33 L 163.67 109.33 L 162.83 107.83 L 162.67 106.67 L 161.83 105.67 L 161.67 104.67 L 161.00 104.00 L 160.50 102.83 L 159.83 102.17 L 159.83 101.83 L 158.83 100.83 L 158.50 100.17 L 155.17 97.00 L 154.17 96.33 L 153.17 96.00 L 152.83 95.67 L 152.83 95.17 L 153.50 94.67 L 154.67 94.67 L 156.00 93.83 L 157.50 93.50 L 158.17 92.83 L 159.50 92.50 L 159.83 92.00 L 161.33 91.50 L 161.67 91.00 L 162.83 90.50 L 163.50 89.83 L 164.17 89.67 L 165.00 88.83 L 165.50 88.67 L 166.00 88.00 L 166.67 87.67 L 168.50 86.17 L 171.67 83.00 L 172.83 81.33 L 174.67 79.33 L 175.83 77.17 L 176.50 76.50 L 177.00 75.17 L 177.67 74.50 L 177.83 73.67 L 178.67 72.50 L 178.83 71.33 L 179.67 70.17 L 179.83 68.83 L 180.67 67.33 L 180.83 65.67 L 181.67 63.83 L 181.83 60.33 L 182.33 59.00 L 182.33 58.00 L 182.50 57.83 L 182.50 54.83 L 182.67 54.67 L 182.50 54.17 L 182.50 51.17 L 181.83 48.67 L 181.67 45.33 L 180.83 43.67 L 180.67 41.67 L 179.83 40.33 L 179.67 38.83 L 179.00 38.00 L 178.67 36.67 L 177.83 35.67 L 177.67 34.50 L 176.83 33.67 L 176.67 32.83 L 176.17 32.33 L 175.67 31.33 L 174.83 30.50 L 174.67 29.83 L 172.83 27.50 L 166.50 21.17 L 166.00 21.00 L 164.00 19.33 L 163.17 19.00 L 162.33 18.17 L 161.17 17.83 L 160.50 17.17 L 159.17 16.67 L 158.67 16.17 L 157.33 15.83 L 156.50 15.17 L 155.17 15.00 L 154.00 14.17 L 152.17 14.00 L 150.83 13.17 L 148.33 13.00 L 147.33 12.50 L 146.00 12.33 L 145.83 12.17 Z M 19.83 74.83 L 20.67 73.00 L 20.83 71.67 L 21.50 70.83 L 22.00 69.67 L 22.67 69.00 L 22.83 68.33 L 25.50 65.83 L 26.00 65.67 L 26.67 65.00 L 27.50 64.67 L 28.00 64.00 L 29.33 63.67 L 30.50 62.83 L 31.83 62.67 L 33.67 61.83 L 34.83 61.83 L 35.00 61.67 L 42.67 61.67 L 42.83 61.83 L 43.83 61.83 L 45.50 62.67 L 47.00 62.83 L 47.83 63.50 L 49.17 63.83 L 49.83 64.50 L 50.83 64.83 L 51.33 65.50 L 53.17 66.83 L 55.00 68.83 L 55.17 69.33 L 56.00 70.17 L 56.17 71.17 L 57.00 72.17 L 57.17 73.67 L 57.83 75.83 L 57.83 94.50 L 58.33 95.50 L 92.50 95.50 L 92.67 95.67 L 94.17 95.67 L 94.83 95.83 L 96.17 96.67 L 96.67 96.67 L 97.83 97.50 L 98.67 97.83 L 101.00 100.00 L 102.83 102.17 L 103.17 103.17 L 104.00 104.17 L 104.33 105.50 L 105.00 106.17 L 105.17 107.83 L 106.00 109.83 L 106.00 111.00 L 106.17 111.17 L 106.17 117.83 L 106.00 118.00 L 106.00 119.17 L 105.17 121.17 L 105.00 122.67 L 104.33 123.50 L 104.00 124.83 L 103.33 125.50 L 103.00 126.67 L 102.17 127.33 L 102.00 127.83 L 98.83 131.00 L 98.33 131.17 L 97.50 132.00 L 96.50 132.17 L 95.50 133.00 L 93.67 133.17 L 91.83 133.67 L 63.00 133.67 L 62.67 134.00 L 62.67 134.33 L 63.17 135.67 L 63.83 136.50 L 64.17 137.67 L 65.00 138.83 L 65.17 139.67 L 65.83 140.50 L 66.00 141.17 L 66.83 142.33 L 67.17 143.33 L 68.00 144.17 L 68.17 145.00 L 68.83 145.67 L 69.17 146.50 L 70.00 147.33 L 70.33 148.33 L 70.67 148.50 L 71.33 149.67 L 71.83 150.00 L 73.17 152.17 L 79.83 159.67 L 87.67 166.67 L 88.50 167.00 L 89.17 167.67 L 89.67 167.83 L 91.83 169.67 L 92.83 170.00 L 93.33 170.67 L 94.17 171.00 L 94.83 171.67 L 95.67 171.83 L 96.50 172.67 L 97.33 172.83 L 98.00 173.50 L 99.33 174.00 L 100.17 174.67 L 101.00 174.83 L 102.00 175.67 L 103.00 175.83 L 103.83 176.50 L 105.17 176.83 L 106.33 177.67 L 107.67 177.83 L 108.67 178.67 L 110.00 178.83 L 111.33 179.67 L 113.00 179.83 L 113.33 180.17 L 114.50 180.67 L 116.00 180.83 L 117.83 181.67 L 119.00 181.67 L 120.67 182.33 L 121.17 181.83 L 121.17 116.50 L 121.33 116.33 L 121.33 115.00 L 121.67 113.67 L 121.67 112.00 L 121.83 111.83 L 121.83 111.00 L 122.50 110.17 L 122.83 108.50 L 123.50 107.67 L 124.00 106.33 L 124.67 105.67 L 124.83 105.17 L 129.00 100.83 L 129.50 100.67 L 130.33 99.83 L 131.50 99.50 L 132.17 98.83 L 133.33 98.67 L 134.67 97.83 L 136.67 97.67 L 138.50 97.17 L 142.17 97.17 L 144.00 97.67 L 146.00 97.83 L 147.33 98.67 L 148.83 99.00 L 149.50 99.67 L 150.50 100.00 L 152.83 101.83 L 154.17 103.17 L 155.17 104.50 L 155.83 105.00 L 156.33 106.17 L 156.83 106.67 L 157.33 108.00 L 158.00 108.83 L 158.17 110.17 L 159.00 111.83 L 159.17 114.83 L 159.33 115.00 L 159.33 181.83 L 160.00 182.33 L 161.67 181.67 L 162.83 181.67 L 164.50 180.83 L 166.33 180.67 L 167.33 180.00 L 169.17 179.67 L 170.67 178.83 L 172.00 178.67 L 173.17 177.83 L 174.33 177.67 L 175.50 176.83 L 176.50 176.67 L 177.83 175.83 L 178.67 175.67 L 179.50 175.00 L 180.83 174.50 L 181.33 174.00 L 182.67 173.50 L 183.00 173.00 L 184.17 172.67 L 185.00 171.83 L 185.83 171.67 L 186.50 171.00 L 187.33 170.67 L 188.17 169.83 L 188.83 169.67 L 189.50 169.00 L 190.33 168.67 L 190.83 168.00 L 191.33 167.83 L 192.33 166.83 L 194.00 165.83 L 196.33 163.83 L 197.00 163.00 L 197.67 162.67 L 203.67 156.67 L 206.83 153.00 L 207.83 151.33 L 208.83 150.33 L 209.00 149.83 L 209.67 149.33 L 209.83 148.67 L 210.50 148.00 L 210.83 147.17 L 211.67 146.33 L 211.83 145.67 L 212.67 144.67 L 212.83 144.00 L 213.50 143.33 L 213.83 142.17 L 214.67 141.33 L 214.83 140.33 L 215.50 139.67 L 215.83 139.00 L 215.83 138.50 L 216.67 137.33 L 217.00 136.00 L 217.83 135.00 L 217.83 133.83 L 217.67 133.67 L 186.50 133.67 L 184.83 133.17 L 183.17 133.00 L 182.33 132.17 L 181.17 131.83 L 180.67 131.17 L 180.17 131.00 L 178.00 128.83 L 176.67 126.50 L 175.83 125.50 L 175.67 124.50 L 174.83 123.33 L 174.67 121.67 L 173.83 119.83 L 173.67 115.00 L 173.50 114.83 L 173.50 114.17 L 173.67 114.00 L 173.67 110.33 L 173.83 110.17 L 173.83 109.17 L 174.67 107.33 L 174.83 105.83 L 175.50 104.83 L 175.83 103.67 L 176.67 102.50 L 177.00 101.67 L 177.67 101.00 L 178.00 100.17 L 180.33 97.83 L 181.17 97.50 L 181.83 96.83 L 182.50 96.67 L 183.83 95.83 L 185.83 95.67 L 186.00 95.50 L 250.17 95.50 L 250.33 95.67 L 252.67 95.83 L 253.33 96.50 L 254.83 97.00 L 255.33 97.67 L 255.83 97.83 L 259.00 101.17 L 259.17 101.83 L 260.00 102.83 L 260.00 103.17 L 261.00 104.83 L 261.33 106.50 L 262.00 107.50 L 262.17 109.83 L 262.67 111.50 L 262.83 114.17 L 263.00 114.33 L 262.83 116.67 L 262.17 119.17 L 262.00 121.67 L 261.17 122.83 L 261.00 125.67 L 260.50 126.50 L 260.17 127.67 L 260.00 129.83 L 259.17 131.33 L 259.00 133.33 L 258.17 134.83 L 258.00 136.67 L 257.17 137.83 L 257.00 139.33 L 256.17 140.67 L 256.00 142.00 L 255.33 142.83 L 255.00 144.67 L 254.33 145.33 L 254.00 146.83 L 253.17 148.00 L 253.00 149.00 L 252.17 150.17 L 252.00 151.17 L 251.33 152.00 L 250.83 153.33 L 250.33 153.83 L 250.00 155.00 L 249.17 156.00 L 249.00 156.83 L 248.33 157.50 L 248.00 158.67 L 247.17 159.50 L 246.83 160.50 L 246.17 161.17 L 246.00 161.83 L 245.33 162.50 L 245.00 163.50 L 244.17 164.33 L 243.83 165.17 L 243.17 165.83 L 243.00 166.50 L 241.00 168.83 L 239.83 170.83 L 238.33 172.33 L 238.00 173.00 L 235.00 176.67 L 234.17 177.33 L 233.00 178.83 L 232.33 179.33 L 230.00 182.00 L 225.33 186.33 L 224.83 187.00 L 223.33 188.17 L 221.50 190.00 L 221.00 190.17 L 220.67 190.67 L 218.50 192.17 L 218.00 192.83 L 217.33 193.17 L 216.50 194.00 L 216.00 194.17 L 215.33 194.83 L 214.50 195.17 L 213.83 196.00 L 213.33 196.17 L 212.50 197.00 L 211.50 197.33 L 209.50 199.00 L 208.67 199.17 L 207.83 200.00 L 207.17 200.17 L 206.50 200.83 L 205.50 201.17 L 204.67 202.00 L 203.50 202.33 L 203.17 202.83 L 201.83 203.33 L 201.33 203.83 L 200.00 204.33 L 199.17 205.00 L 198.33 205.17 L 197.17 206.00 L 196.33 206.17 L 195.17 207.00 L 194.17 207.17 L 193.33 207.83 L 192.00 208.17 L 190.83 209.00 L 189.67 209.17 L 188.67 210.00 L 187.33 210.17 L 186.00 211.00 L 184.83 211.17 L 183.83 212.00 L 182.67 212.17 L 181.33 213.00 L 179.00 213.17 L 176.17 213.83 L 175.17 213.83 L 175.00 213.67 L 173.17 213.50 L 172.17 213.17 L 170.00 213.00 L 168.83 212.17 L 168.17 212.17 L 167.33 211.83 L 166.83 211.33 L 165.67 210.83 L 165.00 210.17 L 164.33 210.00 L 163.67 209.17 L 162.83 208.67 L 161.67 207.17 L 160.83 206.50 L 159.67 205.00 L 159.33 205.00 L 158.33 206.50 L 158.00 207.83 L 157.33 208.67 L 157.17 209.50 L 156.83 210.17 L 156.17 210.83 L 156.00 211.50 L 154.00 213.83 L 151.67 216.00 L 151.17 216.17 L 150.50 216.83 L 149.50 217.17 L 148.83 217.83 L 147.33 218.17 L 146.00 219.00 L 144.00 219.17 L 143.83 219.33 L 143.00 219.33 L 142.17 219.67 L 140.83 219.67 L 140.67 219.83 L 139.33 219.83 L 136.83 219.17 L 134.83 219.00 L 133.33 218.17 L 132.17 218.00 L 131.50 217.33 L 130.83 217.00 L 130.33 217.00 L 129.50 216.17 L 128.83 215.83 L 124.83 211.67 L 124.50 210.83 L 124.00 210.33 L 123.67 209.33 L 123.17 208.83 L 122.83 208.17 L 122.67 207.17 L 122.00 206.33 L 121.83 205.50 L 121.50 205.00 L 121.00 205.00 L 117.67 208.83 L 117.00 209.17 L 116.17 210.00 L 115.67 210.17 L 114.83 211.00 L 114.00 211.17 L 113.00 212.00 L 111.83 212.17 L 110.67 213.00 L 108.50 213.17 L 108.33 213.33 L 105.50 213.67 L 105.33 213.83 L 103.67 213.67 L 101.67 213.17 L 99.17 213.00 L 98.00 212.17 L 96.83 212.00 L 95.83 211.17 L 94.67 211.00 L 93.33 210.17 L 92.00 210.00 L 91.00 209.17 L 90.33 209.17 L 89.50 208.83 L 88.67 208.17 L 87.50 208.00 L 86.50 207.17 L 85.33 207.00 L 84.33 206.17 L 83.33 206.00 L 82.33 205.17 L 81.33 205.00 L 80.67 204.33 L 79.33 203.83 L 78.17 203.00 L 77.83 203.00 L 77.17 202.33 L 75.83 201.83 L 75.17 201.17 L 74.00 200.83 L 73.50 200.17 L 72.83 200.00 L 72.00 199.17 L 71.17 199.00 L 70.33 198.17 L 68.00 196.83 L 67.50 196.17 L 67.00 196.00 L 66.17 195.17 L 65.50 195.00 L 62.17 192.17 L 61.67 192.00 L 60.83 191.17 L 60.33 191.00 L 58.50 189.17 L 53.50 184.83 L 49.83 181.17 L 46.67 177.50 L 44.67 175.50 L 43.00 173.50 L 41.67 171.50 L 39.83 169.50 L 39.67 168.83 L 37.83 166.67 L 37.50 165.83 L 36.83 165.17 L 36.67 164.50 L 35.83 163.67 L 34.67 161.50 L 33.83 160.67 L 33.50 159.50 L 32.83 158.83 L 32.50 157.83 L 31.67 156.67 L 31.67 156.33 L 31.00 155.67 L 30.67 154.50 L 30.00 153.83 L 29.67 152.50 L 29.00 151.83 L 28.67 150.50 L 28.00 149.83 L 27.67 148.33 L 27.00 147.50 L 26.67 146.17 L 25.83 144.83 L 25.67 143.67 L 24.83 142.67 L 24.50 140.67 L 23.83 139.83 L 23.67 138.33 L 22.83 137.00 L 22.67 135.33 L 21.83 133.83 L 21.67 132.00 L 20.83 130.50 L 20.67 128.17 L 19.83 126.33 L 19.50 123.17 L 18.83 121.67 L 18.50 117.17 L 17.83 115.50 L 17.67 109.83 L 17.50 109.67 L 17.17 104.00 L 17.00 103.83 L 17.00 98.17 L 17.17 98.00 L 17.17 95.83 L 17.33 95.67 L 17.50 91.83 L 17.67 91.67 L 17.83 86.00 L 18.33 84.67 L 18.50 83.00 L 18.67 82.83 L 18.83 79.67 L 19.67 77.33 Z M 137.83 17.17 L 142.33 17.17 L 142.50 17.33 L 144.50 17.50 L 144.67 17.67 L 148.00 17.83 L 149.83 18.67 L 151.67 18.83 L 152.83 19.67 L 154.67 19.83 L 155.33 20.67 L 156.67 20.83 L 157.50 21.67 L 158.67 22.00 L 160.83 23.67 L 161.50 23.83 L 166.83 28.50 L 168.83 30.83 L 169.17 31.50 L 169.83 32.00 L 170.17 32.67 L 170.83 33.33 L 171.17 34.33 L 172.00 35.17 L 172.33 36.17 L 172.83 36.67 L 173.00 37.33 L 174.00 39.00 L 174.17 40.00 L 175.00 41.17 L 175.17 42.67 L 176.00 44.17 L 176.00 45.33 L 176.17 45.50 L 176.33 47.00 L 177.00 48.33 L 177.00 51.33 L 177.17 51.50 L 177.00 60.67 L 176.33 62.00 L 176.00 64.83 L 175.17 66.33 L 175.00 67.83 L 174.17 69.17 L 173.83 70.50 L 173.17 71.33 L 173.00 72.00 L 172.17 73.17 L 172.00 73.83 L 171.17 74.83 L 170.83 75.83 L 170.17 76.33 L 169.83 77.00 L 169.00 77.83 L 168.83 78.33 L 165.50 82.00 L 165.00 82.17 L 164.50 82.83 L 163.83 83.17 L 163.00 84.00 L 162.50 84.17 L 160.50 86.00 L 159.67 86.17 L 159.00 86.83 L 157.83 87.17 L 157.17 87.83 L 156.00 88.17 L 154.83 89.00 L 153.50 89.17 L 152.67 90.00 L 150.67 90.17 L 148.83 91.00 L 146.33 91.17 L 143.33 92.00 L 136.50 92.00 L 133.50 91.17 L 131.00 91.00 L 129.33 90.17 L 127.33 90.00 L 126.33 89.17 L 125.17 89.00 L 124.00 88.17 L 123.00 88.00 L 122.00 87.17 L 121.17 87.00 L 120.33 86.17 L 119.33 85.83 L 117.17 84.00 L 116.67 83.83 L 112.83 80.33 L 111.00 78.17 L 110.67 77.50 L 108.83 75.50 L 108.50 74.50 L 108.00 74.00 L 107.50 72.83 L 107.17 72.50 L 106.67 71.17 L 105.83 69.83 L 105.67 69.00 L 104.83 67.67 L 104.67 66.17 L 103.83 64.67 L 103.50 61.83 L 102.83 60.33 L 102.83 56.67 L 102.67 56.50 L 102.83 49.00 L 103.67 46.83 L 103.83 44.17 L 104.67 43.00 L 104.83 41.17 L 105.67 40.17 L 105.83 39.00 L 106.50 38.33 L 106.83 37.17 L 107.67 36.00 L 107.83 35.17 L 108.67 34.33 L 109.00 33.50 L 109.83 32.33 L 112.67 29.00 L 115.83 26.00 L 116.50 25.67 L 117.17 24.83 L 117.67 24.67 L 118.33 23.83 L 119.17 23.67 L 121.33 22.00 L 122.33 21.67 L 123.17 20.83 L 124.50 20.67 L 125.17 20.00 L 127.00 19.67 L 128.17 18.83 L 130.17 18.67 L 132.00 17.83 L 135.17 17.67 L 135.33 17.50 L 136.50 17.50 Z M 133.83 0.00 L 134.17 0.33 L 134.83 0.33 L 135.00 0.00 Z"/>
  <path fill="#FFF200" fill-rule="evenodd" d="M 137.83 17.33 L 137.67 17.50 L 135.33 17.67 L 135.17 17.83 L 132.00 18.00 L 130.17 18.83 L 128.17 19.00 L 127.00 19.83 L 125.17 20.17 L 124.50 20.83 L 124.00 21.00 L 123.17 21.00 L 122.33 21.83 L 121.33 22.17 L 119.17 23.83 L 118.33 24.00 L 117.67 24.83 L 117.17 25.00 L 116.50 25.83 L 115.83 26.17 L 112.83 29.00 L 110.00 32.33 L 109.17 33.50 L 108.83 34.33 L 108.00 35.17 L 107.83 36.00 L 107.17 36.83 L 106.67 38.33 L 106.00 39.00 L 105.83 40.17 L 105.00 41.17 L 104.83 43.00 L 104.00 44.17 L 103.83 46.83 L 103.00 49.00 L 103.00 52.00 L 102.83 52.17 L 103.00 60.33 L 103.67 61.83 L 104.00 64.67 L 104.67 65.67 L 105.00 67.67 L 105.83 69.00 L 106.00 69.83 L 106.67 70.83 L 107.33 72.50 L 107.67 72.83 L 108.17 74.00 L 108.67 74.50 L 109.00 75.50 L 110.83 77.50 L 111.17 78.17 L 113.00 80.33 L 116.67 83.67 L 117.17 83.83 L 119.33 85.67 L 120.33 86.00 L 121.17 86.83 L 122.00 87.00 L 123.00 87.83 L 124.00 88.00 L 125.17 88.83 L 126.33 89.00 L 127.33 89.83 L 129.33 90.00 L 131.00 90.83 L 133.50 91.00 L 136.50 91.83 L 143.33 91.83 L 146.33 91.00 L 148.83 90.83 L 150.67 90.00 L 152.67 89.83 L 153.50 89.00 L 154.83 88.83 L 155.67 88.17 L 157.17 87.67 L 157.83 87.00 L 159.00 86.67 L 159.67 86.00 L 160.50 85.83 L 162.50 84.00 L 163.00 83.83 L 163.83 83.00 L 164.50 82.67 L 165.00 82.00 L 165.50 81.83 L 168.67 78.33 L 168.83 77.83 L 169.67 77.00 L 170.00 76.33 L 170.67 75.83 L 171.00 74.83 L 171.83 73.83 L 172.00 73.17 L 172.50 72.67 L 173.00 71.33 L 173.67 70.50 L 174.00 69.17 L 174.83 67.83 L 175.00 66.33 L 175.83 64.83 L 176.17 62.00 L 176.83 60.67 L 176.83 58.00 L 177.00 57.83 L 176.83 48.33 L 176.17 47.00 L 176.00 45.50 L 175.83 45.33 L 175.83 44.17 L 175.00 42.67 L 174.83 41.17 L 174.17 40.33 L 173.83 39.00 L 173.17 38.00 L 172.67 36.67 L 172.17 36.17 L 171.83 35.17 L 171.00 34.33 L 170.67 33.33 L 170.00 32.67 L 169.67 32.00 L 169.00 31.50 L 168.67 30.83 L 166.67 28.50 L 161.50 24.00 L 160.83 23.83 L 158.67 22.17 L 157.50 21.83 L 156.67 21.00 L 155.33 20.83 L 154.67 20.00 L 152.83 19.83 L 151.67 19.00 L 149.83 18.83 L 148.00 18.00 L 144.67 17.83 L 144.50 17.67 L 143.33 17.67 L 142.33 17.33 Z"/>
</svg>