<svg xmlns="http://www.w3.org/2000/svg" viewBox="0 0 280 280"><g transform="translate(0 21.50)"><path fill="#000" fill-rule="evenodd" d="M 132.00 0.00 L 131.83 0.33 L 130.33 0.83 L 128.33 0.83 L 127.00 1.17 L 125.67 1.83 L 123.67 2.00 L 122.83 2.67 L 121.33 2.83 L 119.67 3.83 L 118.33 4.00 L 117.67 4.67 L 116.50 4.83 L 115.50 5.67 L 114.33 6.00 L 113.67 6.67 L 112.50 7.00 L 111.83 7.67 L 110.83 8.00 L 110.33 8.67 L 109.33 9.00 L 108.50 9.83 L 108.17 9.83 L 107.17 10.83 L 105.50 11.83 L 103.50 13.83 L 103.00 14.00 L 102.83 14.50 L 102.17 14.83 L 100.00 17.00 L 99.83 17.50 L 98.00 19.17 L 97.83 19.67 L 97.00 20.50 L 96.83 21.00 L 96.00 21.83 L 95.83 22.33 L 94.83 23.33 L 94.67 24.00 L 94.00 24.67 L 93.67 25.67 L 93.00 26.17 L 92.50 27.50 L 92.00 28.00 L 91.67 29.00 L 91.17 29.50 L 90.83 30.17 L 90.83 30.67 L 89.83 32.17 L 89.67 33.33 L 88.83 34.50 L 88.83 35.50 L 88.00 36.83 L 87.83 38.50 L 87.00 40.00 L 86.67 42.83 L 86.33 43.33 L 85.83 45.33 L 85.83 47.83 L 85.67 48.00 L 85.67 49.17 L 85.33 50.00 L 85.33 51.50 L 85.17 51.67 L 85.17 57.33 L 85.33 57.50 L 85.33 59.00 L 85.67 59.83 L 85.67 61.00 L 85.83 61.17 L 86.00 64.67 L 86.67 66.17 L 87.00 69.00 L 87.83 70.50 L 88.00 72.17 L 88.67 73.00 L 89.00 74.83 L 89.67 75.67 L 89.83 76.50 L 90.17 77.00 L 90.17 77.67 L 90.00 77.83 L 75.33 77.83 L 75.00 77.50 L 75.00 72.83 L 74.83 72.67 L 74.67 71.17 L 74.00 69.67 L 74.00 68.17 L 73.00 66.50 L 73.00 65.50 L 72.00 64.00 L 71.83 63.00 L 71.17 62.33 L 70.83 61.17 L 70.00 60.50 L 69.83 59.83 L 69.17 59.17 L 68.83 58.33 L 67.00 56.50 L 66.83 56.00 L 64.67 53.83 L 64.17 53.67 L 62.67 52.00 L 61.83 51.67 L 61.17 51.00 L 60.50 50.83 L 59.83 50.00 L 58.83 49.67 L 58.17 49.00 L 57.00 48.67 L 56.33 48.00 L 55.17 47.83 L 54.17 47.00 L 52.50 46.67 L 51.50 46.00 L 49.33 45.67 L 48.67 45.17 L 47.50 44.83 L 45.67 44.83 L 45.50 44.67 L 44.83 44.67 L 43.17 44.17 L 42.17 44.17 L 42.00 44.00 L 35.33 44.00 L 31.83 44.83 L 30.00 44.83 L 29.83 45.00 L 29.17 45.00 L 27.67 45.83 L 25.83 46.00 L 24.67 46.83 L 23.17 47.00 L 22.50 47.67 L 21.50 47.83 L 20.17 48.83 L 19.50 48.83 L 18.67 49.67 L 17.67 50.00 L 17.00 50.67 L 16.17 51.00 L 15.50 51.83 L 15.17 51.83 L 10.83 55.83 L 9.67 57.50 L 9.00 58.00 L 8.83 58.50 L 8.00 59.17 L 7.67 60.17 L 7.00 60.83 L 6.67 61.83 L 6.00 62.50 L 5.67 63.83 L 5.00 64.50 L 4.83 65.67 L 4.00 67.00 L 3.83 68.83 L 2.83 71.33 L 2.83 73.00 L 2.00 75.33 L 1.83 78.33 L 1.00 81.33 L 0.67 87.17 L 0.33 88.00 L 0.00 88.17 L 0.00 112.67 L 0.33 112.83 L 0.33 113.67 L 0.67 114.33 L 0.83 118.67 L 1.00 118.83 L 1.17 120.83 L 1.83 123.00 L 2.00 126.00 L 2.83 128.00 L 2.83 129.83 L 3.17 131.17 L 3.83 132.50 L 3.83 134.00 L 4.83 136.17 L 4.83 137.67 L 5.67 139.17 L 5.83 140.83 L 6.67 142.33 L 7.00 144.33 L 7.67 145.17 L 7.83 146.67 L 8.67 147.83 L 9.00 149.67 L 9.67 150.33 L 9.83 151.67 L 10.83 153.17 L 11.00 154.33 L 11.83 155.33 L 11.83 156.17 L 12.83 157.50 L 13.00 158.67 L 13.67 159.33 L 14.00 160.67 L 14.67 161.33 L 15.00 162.50 L 15.67 163.17 L 16.00 164.50 L 16.67 165.00 L 17.00 166.17 L 17.67 166.83 L 18.00 167.83 L 18.67 168.50 L 19.00 169.67 L 19.67 170.17 L 20.17 171.33 L 20.67 171.83 L 20.83 172.50 L 21.83 173.50 L 21.83 173.83 L 22.17 174.50 L 22.83 175.17 L 22.83 175.50 L 23.83 176.50 L 25.00 178.67 L 25.83 179.33 L 26.00 179.83 L 27.67 181.83 L 28.00 182.67 L 28.83 183.33 L 30.83 185.67 L 31.00 186.17 L 31.83 187.00 L 32.17 187.67 L 34.83 190.33 L 35.00 190.83 L 43.00 198.83 L 43.67 199.17 L 46.50 202.00 L 49.50 204.17 L 50.17 205.00 L 50.50 205.00 L 52.33 206.83 L 53.17 207.17 L 54.00 208.00 L 54.33 208.00 L 55.00 208.83 L 55.83 209.17 L 56.33 209.83 L 57.33 210.17 L 57.83 210.83 L 58.50 211.00 L 59.17 211.83 L 60.17 212.17 L 61.00 213.00 L 61.50 213.00 L 62.17 213.83 L 62.83 214.00 L 63.83 214.83 L 64.83 215.17 L 65.33 215.83 L 66.50 216.17 L 67.00 216.83 L 68.17 217.17 L 68.83 217.83 L 69.83 218.17 L 70.83 219.00 L 71.50 219.00 L 72.33 219.83 L 73.67 220.17 L 74.17 220.83 L 75.17 221.00 L 76.17 221.83 L 77.50 222.17 L 78.17 222.83 L 79.33 223.00 L 80.33 223.83 L 81.67 224.00 L 82.33 224.67 L 83.00 225.00 L 84.17 225.17 L 85.33 226.00 L 86.67 226.17 L 87.33 226.83 L 88.67 227.00 L 89.67 227.83 L 90.67 228.00 L 92.00 228.83 L 93.50 229.00 L 95.00 229.83 L 95.67 230.00 L 97.00 230.00 L 98.83 230.67 L 100.67 230.83 L 100.83 231.00 L 109.17 231.00 L 109.33 230.83 L 110.67 230.83 L 113.00 230.00 L 115.00 229.83 L 116.50 229.00 L 117.67 229.00 L 118.33 229.67 L 119.17 230.00 L 120.17 231.00 L 120.50 231.00 L 121.50 231.83 L 122.50 232.17 L 123.17 232.83 L 124.33 233.17 L 125.00 233.83 L 126.67 234.17 L 127.33 234.83 L 128.67 235.00 L 130.33 235.83 L 132.67 236.00 L 133.83 236.50 L 134.00 236.83 L 146.83 236.83 L 147.50 236.17 L 150.33 235.83 L 152.00 235.00 L 153.00 235.00 L 154.00 234.17 L 155.67 233.83 L 156.33 233.17 L 157.50 232.83 L 158.17 232.17 L 158.83 232.00 L 159.83 231.17 L 160.50 231.00 L 161.50 230.00 L 161.83 230.00 L 163.00 229.00 L 164.17 229.00 L 165.67 229.83 L 167.83 230.00 L 169.50 230.67 L 171.33 230.83 L 171.50 231.00 L 179.83 231.00 L 180.00 230.83 L 181.83 230.67 L 182.83 230.17 L 185.67 229.83 L 186.67 229.17 L 188.17 229.00 L 189.00 228.67 L 189.50 228.17 L 190.67 228.00 L 192.17 227.00 L 193.33 226.83 L 194.33 226.00 L 195.33 226.00 L 196.50 225.17 L 197.67 225.00 L 198.33 224.67 L 199.17 224.00 L 200.00 224.00 L 201.33 223.00 L 202.50 222.83 L 203.17 222.17 L 204.50 221.83 L 205.50 221.00 L 206.50 220.83 L 207.00 220.17 L 208.00 220.00 L 209.00 219.17 L 209.83 219.00 L 210.83 218.17 L 211.83 217.83 L 212.50 217.17 L 213.67 216.83 L 214.17 216.17 L 214.83 216.00 L 215.83 215.17 L 216.83 214.83 L 217.33 214.17 L 218.00 214.00 L 219.00 213.17 L 219.67 213.00 L 220.67 212.00 L 221.33 211.83 L 222.00 211.17 L 222.83 210.83 L 223.50 210.00 L 224.17 209.83 L 224.83 209.17 L 225.67 208.83 L 226.33 208.00 L 226.67 208.00 L 227.33 207.17 L 229.50 205.83 L 231.33 204.00 L 231.67 204.00 L 232.50 203.00 L 233.00 202.83 L 233.50 202.17 L 235.17 201.00 L 237.17 199.00 L 238.67 197.83 L 243.83 192.67 L 245.00 191.17 L 245.83 190.50 L 249.00 186.50 L 249.83 185.83 L 250.00 185.33 L 251.83 183.50 L 252.17 182.67 L 252.83 182.00 L 253.00 181.50 L 253.83 180.83 L 254.00 180.33 L 255.00 179.33 L 255.00 179.00 L 255.83 178.00 L 256.00 177.50 L 257.00 176.50 L 257.00 176.17 L 257.67 175.50 L 258.17 174.33 L 258.83 173.83 L 259.17 173.00 L 259.67 172.50 L 260.00 171.50 L 261.00 170.50 L 261.00 170.17 L 261.83 169.00 L 262.17 168.00 L 262.83 167.50 L 263.00 166.50 L 263.83 165.67 L 264.33 164.33 L 264.83 163.83 L 265.33 162.50 L 265.83 162.00 L 266.00 161.17 L 266.67 160.33 L 267.17 158.83 L 267.83 158.17 L 268.17 156.67 L 268.83 156.00 L 269.00 155.00 L 270.00 153.50 L 270.00 152.67 L 270.83 151.50 L 271.17 149.83 L 271.83 149.17 L 272.17 147.33 L 272.83 146.50 L 273.00 145.17 L 273.83 143.67 L 274.00 142.17 L 274.83 140.67 L 275.00 139.17 L 276.00 137.00 L 276.17 135.00 L 276.83 134.00 L 277.00 131.83 L 278.00 129.17 L 278.00 127.33 L 278.83 125.67 L 279.00 123.17 L 279.50 122.00 L 279.83 121.83 L 279.83 106.83 L 279.17 106.17 L 278.83 103.17 L 278.17 102.00 L 278.00 100.33 L 277.00 98.67 L 276.83 97.50 L 276.17 96.83 L 275.83 95.33 L 275.00 94.50 L 274.83 93.67 L 274.17 93.00 L 273.83 92.00 L 273.17 91.50 L 272.83 90.67 L 272.17 90.00 L 271.67 89.00 L 269.00 86.50 L 268.83 86.00 L 268.33 85.83 L 267.50 84.83 L 266.50 84.00 L 266.00 83.83 L 265.17 83.00 L 264.17 82.67 L 263.67 82.00 L 262.33 81.50 L 261.67 80.83 L 261.00 80.83 L 259.33 79.83 L 258.00 79.67 L 257.50 79.17 L 256.67 78.83 L 255.17 78.83 L 252.83 78.00 L 251.00 78.00 L 250.83 77.83 L 190.00 77.83 L 189.67 77.50 L 189.67 77.17 L 190.00 76.67 L 190.17 75.83 L 191.00 74.67 L 191.17 73.33 L 191.83 72.50 L 192.17 70.33 L 193.00 68.83 L 193.00 67.17 L 193.83 65.17 L 194.00 61.83 L 194.50 60.00 L 194.67 57.67 L 194.83 57.50 L 194.83 51.50 L 194.67 51.33 L 194.50 49.00 L 194.00 47.17 L 193.83 43.83 L 193.00 41.83 L 193.00 40.17 L 192.50 39.00 L 192.17 38.67 L 192.00 37.00 L 191.67 36.17 L 191.17 35.67 L 191.00 34.33 L 190.00 32.67 L 190.00 32.00 L 189.17 30.83 L 189.00 30.00 L 188.17 28.83 L 187.83 27.67 L 187.17 27.00 L 187.00 26.33 L 186.17 25.50 L 185.83 24.33 L 185.17 23.83 L 184.83 23.00 L 184.17 22.50 L 183.83 21.67 L 183.00 20.83 L 182.83 20.33 L 182.00 19.33 L 181.00 18.50 L 180.83 18.00 L 175.83 13.00 L 175.33 12.83 L 174.67 12.00 L 174.17 11.83 L 172.00 10.00 L 171.33 9.83 L 170.67 9.00 L 169.67 8.67 L 168.83 7.83 L 168.00 7.67 L 167.50 7.00 L 166.33 6.67 L 165.67 6.00 L 164.83 5.83 L 163.33 4.83 L 162.33 4.67 L 161.67 4.00 L 160.33 3.83 L 158.67 2.83 L 157.17 2.67 L 155.83 1.83 L 154.50 1.83 L 153.00 1.17 L 151.67 0.83 L 149.83 0.83 L 148.50 0.33 L 148.33 0.00 Z"/></g></svg>